ply
format ascii 1.0
element vertex 102
property float x
property float y
property float z
end_header
98 3 20
24 87 83
111 17 93
43 32 9
18 42 124
107 91 122
44 58 20
3 102 118
27 48 63
126 126 66
70 75 124
95 55 82
43 84 119
63 47 45
113 20 97
116 79 110
104 3 59
16 24 118
4 109 88
81 48 0
118 58 43
10 99 73
86 11 32
55 108 108
56 121 85
84 4 19
80 27 96
71 29 46
36 53 24
32 55 12
100 30 48
126 71 110
2 95 10
36 33 83
92 90 86
90 23 50
41 43 121
63 55 64
76 124 44
122 42 103
80 44 94
39 48 17
89 93 66
8 86 72
65 56 73
42 94 58
92 62 89
2 81 30
57 48 17
26 119 107
3 126 3
36 95 89
32 18 44
44 127 71
78 76 82
111 73 125
55 98 14
8 27 105
92 69 11
53 90 127
103 39 63
118 87 45
119 11 71
72 47 0
118 55 58
53 29 72
82 118 63
17 70 68
78 110 116
27 2 115
33 3 110
109 89 101
120 49 58
47 119 126
119 112 114
25 95 28
60 30 78
105 66 36
110 88 30
103 73 42
4 97 114
52 32 67
89 43 46
37 71 16
8 4 15
94 121 7
30 103 2
68 21 53
27 80 64
49 83 7
18 109 101
59 77 61
114 4 54
3 104 32
77 32 54
103 24 56
74 107 103
69 57 126
118 108 118
63 89 24
123 6 19
113 88 15
