ply
format ascii 1.0
element vertex 52
property float x
property float y
property float z
end_header
0 7 36
0 38 0
2 1 45
3 62 44
7 11 54
13 32 17
13 33 9
13 35 50
14 17 48
15 4 0
15 42 15
18 13 20
19 1 36
19 63 39
20 15 40
21 24 33
24 1 2
25 12 10
26 8 23
27 5 7
27 62 51
28 13 20
28 17 15
28 21 4
30 30 24
30 63 26
31 21 26
31 42 11
35 29 46
35 54 13
35 58 50
36 33 7
37 5 1
38 28 1
39 44 58
42 6 28
42 13 15
43 22 46
43 54 58
44 27 20
44 35 13
44 37 1
48 59 43
49 14 12
52 49 8
54 45 1
56 59 44
57 10 15
57 31 59
58 49 15
61 7 13
61 28 38
