ply
format ascii 1.0
element vertex 52
property float x
property float y
property float z
end_header
43 22 46
57 10 15
3 62 44
44 27 20
56 59 44
31 21 26
30 63 26
19 1 36
21 24 33
42 6 28
14 17 48
58 49 15
36 33 7
28 21 4
13 32 17
28 13 20
61 7 13
31 42 11
39 44 58
7 11 54
57 31 59
30 30 24
0 38 0
48 59 43
13 33 9
0 7 36
35 54 13
44 35 13
26 8 23
20 15 40
24 1 2
52 49 8
37 5 1
15 42 15
2 1 45
27 5 7
43 54 58
15 4 0
42 13 15
13 35 50
18 13 20
35 58 50
54 45 1
35 29 46
61 28 38
19 63 39
38 28 1
25 12 10
27 62 51
44 37 1
28 17 15
49 14 12
